<?xml version="1.0" standalone="no"?>
<!DOCTYPE svg PUBLIC "-//W3C//DTD SVG 20010904//EN"
 "http://www.w3.org/TR/2001/REC-SVG-20010904/DTD/svg10.dtd">
<svg version="1.0" xmlns="http://www.w3.org/2000/svg"
 width="1024.000000pt" height="1024.000000pt" viewBox="0 0 1024.000000 1024.000000"
 preserveAspectRatio="xMidYMid meet">
<metadata>
Created by potrace 1.14, written by Peter Selinger 2001-2017
</metadata>
<g transform="translate(0.000000,1024.000000) scale(0.100000,-0.100000)"
fill="#000000" stroke="none">
<path d="M6122 9595 c-18 -8 -35 -14 -37 -14 -17 1 -72 -15 -84 -25 -8 -6 -16
-10 -18 -8 -3 3 -72 -15 -103 -26 -18 -6 -13 -5 -70 -22 -25 -7 -48 -13 -52
-12 -5 1 -8 -2 -8 -7 0 -5 -17 -12 -37 -16 -21 -4 -42 -10 -48 -13 -5 -4 -17
-7 -25 -7 -8 0 -19 -3 -25 -6 -5 -4 -23 -9 -40 -13 -16 -4 -48 -15 -70 -25
-39 -18 -75 -33 -85 -36 -30 -8 -80 -31 -80 -37 0 -4 -3 -7 -7 -6 -15 3 -63
-14 -63 -22 0 -5 -8 -7 -17 -6 -10 2 -20 0 -23 -3 -3 -3 -23 -15 -45 -26 -22
-11 -58 -39 -81 -62 -22 -24 -44 -43 -48 -43 -4 0 -29 -21 -57 -47 -32 -31
-59 -49 -77 -50 -15 0 -58 -6 -97 -12 -38 -7 -89 -12 -112 -13 -24 -1 -43 -5
-43 -10 0 -5 -8 -8 -17 -7 -42 6 -124 -15 -198 -51 -137 -67 -251 -119 -266
-122 -8 -2 -16 -5 -19 -8 -17 -17 -111 -65 -119 -60 -2 1 -7 -2 -10 -7 -6 -9
-63 -36 -70 -33 -2 1 -7 -2 -10 -7 -3 -4 -53 -32 -111 -61 -133 -67 -225 -117
-260 -142 -15 -11 -30 -17 -34 -13 -3 3 -6 0 -6 -7 0 -7 -3 -10 -7 -7 -3 4
-13 1 -22 -7 -9 -7 -36 -24 -61 -38 -42 -22 -55 -24 -190 -23 -131 0 -147 -1
-162 -19 -10 -10 -18 -25 -18 -33 0 -7 -5 -13 -10 -13 -6 0 -9 -3 -8 -7 3 -13
-24 -63 -34 -63 -4 0 -7 -3 -6 -7 2 -9 -61 -135 -71 -143 -3 -3 -19 -30 -34
-60 -45 -87 -76 -135 -86 -133 -5 1 -27 -17 -49 -41 -22 -24 -42 -42 -44 -40
-3 2 -20 -12 -38 -31 -19 -19 -38 -35 -42 -35 -5 0 -24 -16 -44 -35 -19 -19
-38 -35 -42 -35 -14 0 -113 -106 -106 -113 4 -4 2 -7 -4 -7 -7 0 -12 -5 -12
-10 0 -12 -41 -73 -53 -78 -4 -2 -5 -8 -1 -13 3 -5 0 -9 -7 -9 -8 0 -7 -5 2
-17 8 -9 13 -18 12 -19 -5 -8 10 -65 18 -70 4 -2 5 -12 2 -21 -4 -10 -2 -14 4
-10 7 4 13 -10 17 -38 4 -25 11 -45 16 -45 4 0 6 -8 3 -19 -3 -11 2 -21 11
-24 9 -4 16 -13 16 -22 0 -8 5 -15 12 -15 6 0 8 -3 5 -7 -4 -3 0 -14 9 -24 14
-15 13 -21 -11 -68 -15 -27 -28 -56 -29 -63 -3 -16 -23 -64 -42 -99 -7 -14
-11 -29 -7 -33 3 -3 1 -6 -5 -6 -7 0 -12 -9 -12 -19 0 -11 -5 -23 -10 -26 -6
-4 -8 -11 -5 -16 4 -5 2 -9 -4 -9 -6 0 -13 -16 -17 -35 -3 -19 -10 -35 -16
-35 -5 0 -7 -4 -3 -9 3 -5 1 -12 -4 -15 -11 -7 -24 -64 -21 -99 1 -15 -3 -34
-9 -40 -5 -7 -9 -22 -9 -32 1 -11 -2 -32 -5 -47 -5 -19 -3 -28 4 -28 7 0 9 -3
6 -7 -4 -3 -2 -12 4 -20 9 -10 8 -13 0 -13 -7 0 -9 -5 -6 -11 4 -6 1 -9 -6 -8
-32 7 -77 -15 -116 -57 -24 -24 -43 -49 -43 -54 0 -6 -7 -10 -15 -10 -8 0 -15
6 -15 14 0 16 -30 26 -82 26 -33 0 -38 -3 -38 -23 0 -13 -3 -27 -7 -31 -4 -4
-8 -55 -10 -114 -4 -136 -9 -191 -17 -222 -4 -14 -9 -48 -11 -75 -7 -84 -12
-119 -18 -135 -6 -17 -19 -133 -18 -169 1 -12 -2 -28 -7 -35 -4 -6 -8 -24 -10
-41 -5 -63 -14 -121 -19 -135 -3 -8 -7 -21 -7 -27 -1 -7 -5 -12 -9 -12 -5 0
-23 -10 -40 -24 -18 -13 -42 -27 -54 -31 -13 -4 -23 -12 -23 -17 0 -6 -4 -8
-9 -5 -4 3 -19 -3 -31 -14 -13 -11 -29 -20 -37 -20 -7 0 -13 -4 -13 -8 0 -5
-16 -14 -35 -22 -19 -8 -35 -17 -35 -21 0 -4 -11 -9 -23 -13 -32 -8 -147 -124
-140 -142 3 -8 1 -14 -4 -14 -23 0 -51 -144 -31 -156 5 -3 8 -18 8 -33 0 -37
81 -161 104 -161 6 0 21 -12 33 -27 13 -14 23 -23 23 -19 0 3 25 -7 57 -24 31
-17 58 -28 61 -25 3 2 18 -5 33 -16 16 -11 29 -17 29 -14 0 4 12 -2 27 -13 21
-15 27 -28 28 -61 1 -22 -2 -41 -7 -41 -4 0 -8 -10 -8 -23 0 -13 -15 -37 -34
-56 -21 -21 -33 -41 -31 -52 2 -11 0 -19 -5 -19 -5 0 -5 -12 -1 -27 4 -16 6
-43 4 -62 -2 -25 4 -44 23 -68 14 -18 22 -33 19 -33 -8 0 54 -60 63 -60 14 -1
125 -110 119 -117 -4 -3 -7 -1 -7 6 0 12 -61 -16 -68 -32 -2 -4 -8 -5 -13 -1
-5 3 -9 -1 -9 -10 0 -13 -28 -74 -40 -86 -8 -8 -4 -92 4 -115 20 -54 27 -67
32 -62 4 3 17 -6 29 -19 13 -14 27 -24 32 -23 14 3 33 -44 33 -81 0 -20 -7
-45 -15 -56 -8 -12 -11 -24 -8 -28 3 -3 1 -6 -5 -6 -6 0 -14 -17 -18 -37 -4
-21 -11 -44 -16 -50 -6 -7 -8 -19 -5 -28 4 -8 2 -17 -3 -20 -13 -8 -13 -152 0
-160 6 -4 7 -11 4 -17 -11 -18 75 -168 97 -168 4 0 20 -5 36 -12 15 -6 30 -12
33 -12 3 -1 26 -12 52 -24 26 -13 53 -22 60 -21 7 1 24 -1 38 -5 55 -15 127
-18 418 -19 166 -1 302 -5 302 -10 0 -4 31 -7 69 -6 37 1 74 -2 81 -6 8 -5 35
-7 62 -6 28 1 48 -2 48 -8 0 -6 10 -10 23 -10 12 1 42 -4 67 -10 25 -7 52 -13
60 -15 31 -6 80 -28 80 -37 0 -5 3 -8 8 -7 12 2 46 -15 66 -34 11 -10 16 -18
10 -18 -5 0 -4 -4 1 -8 20 -14 87 -102 79 -102 -5 0 -1 -5 9 -11 9 -5 17 -15
17 -21 0 -5 13 -27 29 -47 26 -33 39 -55 73 -121 7 -14 16 -28 21 -31 5 -3 8
-8 7 -10 -2 -8 30 -77 37 -81 6 -2 62 -108 68 -128 1 -3 7 -18 13 -33 7 -16
12 -33 12 -38 0 -5 4 -9 9 -9 5 0 12 -14 16 -30 4 -17 11 -30 15 -30 5 0 7 -7
3 -16 -3 -9 -1 -19 6 -23 10 -7 36 -82 45 -131 2 -8 8 -26 13 -40 6 -14 8 -31
6 -38 -3 -6 -1 -12 4 -12 5 0 10 -6 11 -12 1 -12 12 -55 28 -113 9 -32 15 -75
21 -152 3 -40 8 -73 12 -73 4 0 6 -11 6 -25 -1 -16 -18 -42 -43 -67 -23 -22
-44 -49 -47 -59 -4 -11 -11 -19 -16 -19 -5 0 -9 -5 -9 -11 0 -10 -16 -34 -122
-179 -18 -24 -36 -53 -40 -62 -4 -10 -12 -18 -18 -18 -6 0 -9 -4 -6 -9 3 -4
-3 -16 -14 -26 -11 -10 -17 -22 -14 -26 3 -5 1 -9 -3 -9 -8 0 -28 -43 -30 -64
-1 -5 -5 -12 -10 -15 -9 -6 -36 -63 -33 -70 1 -2 -2 -7 -7 -10 -9 -6 -36 -63
-33 -70 1 -2 -2 -7 -7 -10 -10 -7 -29 -37 -45 -71 -7 -14 -16 -28 -21 -31 -5
-3 -8 -8 -7 -10 1 -2 -4 -17 -11 -34 -7 -16 -13 -34 -15 -40 -13 -44 -41 -111
-48 -116 -5 -4 -5 -12 -2 -18 4 -6 3 -11 -2 -11 -5 0 -13 -15 -17 -32 -4 -18
-9 -35 -10 -38 -5 -14 -28 -67 -36 -83 -6 -10 -7 -22 -4 -27 3 -4 1 -10 -5
-12 -5 -1 -12 -18 -16 -35 l-6 -33 2255 0 2256 0 -9 28 c-12 38 -34 82 -42 82
-3 0 -4 9 -1 20 3 11 1 20 -5 20 -6 0 -14 16 -18 35 -3 19 -10 35 -15 35 -5 0
-8 3 -7 8 1 4 -3 18 -9 32 -19 41 -26 65 -25 73 1 4 -2 7 -8 7 -5 0 -10 8 -10
18 0 10 -3 22 -7 26 -5 4 -8 11 -9 14 -2 22 -45 102 -54 102 -5 0 -10 5 -10
11 0 11 -96 123 -147 172 -18 16 -33 35 -33 40 0 5 -20 30 -44 56 -24 25 -70
75 -101 111 -31 36 -74 83 -95 106 -22 22 -40 44 -40 49 0 9 -44 51 -83 79
-15 10 -27 25 -27 32 0 8 -7 14 -15 14 -8 0 -15 5 -15 12 0 6 -3 9 -6 5 -4 -3
-21 5 -39 18 -17 14 -35 25 -39 25 -4 0 -27 14 -51 30 -24 17 -47 30 -50 30
-4 0 -21 10 -38 22 -18 13 -34 23 -37 23 -3 1 -24 11 -48 23 -23 13 -47 20
-52 17 -5 -3 -11 -1 -15 5 -3 5 -19 10 -36 10 -16 0 -29 4 -29 9 0 5 -8 7 -19
4 -20 -5 -30 5 -36 36 -4 20 -23 47 -68 94 -15 16 -26 32 -23 35 3 2 -12 20
-34 40 -22 19 -40 40 -40 46 0 7 -10 22 -22 33 -33 31 -178 228 -178 242 0 5
-7 11 -15 15 -8 3 -15 12 -15 19 0 8 -7 20 -15 27 -8 7 -13 16 -10 20 3 4 -2
10 -10 14 -8 3 -24 20 -35 38 -23 38 -71 55 -142 52 -27 -1 -48 2 -48 7 0 5
-35 8 -77 8 -100 -2 -105 -1 -98 11 3 6 1 10 -4 10 -6 0 -11 9 -11 19 0 11 -5
32 -12 48 -6 15 -12 31 -12 35 -1 3 -4 10 -8 14 -5 4 -8 16 -8 26 0 10 -4 18
-8 18 -5 0 -9 6 -10 13 0 6 -3 19 -5 27 -2 8 -7 29 -11 45 -4 17 -9 36 -12 43
-2 7 -4 14 -4 17 -1 3 -7 20 -15 39 -8 20 -15 47 -15 61 0 14 -5 25 -11 25 -6
0 -9 7 -6 15 4 8 2 17 -3 20 -10 6 -25 91 -21 120 3 23 60 87 72 80 4 -3 9 2
13 10 3 8 12 15 20 15 8 0 16 6 19 13 3 8 7 6 12 -7 4 -10 4 -21 -1 -25 -5 -3
-9 -13 -9 -21 1 -8 -2 -19 -6 -25 -4 -5 -10 -32 -14 -59 l-8 -49 43 34 c24 19
76 67 115 107 40 39 76 72 80 72 4 0 18 11 30 24 13 14 25 23 28 20 2 -2 10 2
17 11 7 8 18 15 25 15 8 0 15 3 17 8 2 4 37 30 78 57 41 28 76 53 78 57 2 4
10 4 18 1 8 -3 14 -1 14 4 0 6 18 16 40 23 22 7 40 17 40 21 0 4 14 10 30 14
17 4 28 11 24 16 -3 5 3 9 13 9 10 0 35 11 54 24 20 14 48 28 63 32 14 3 23
10 20 15 -3 5 1 9 9 9 8 0 25 9 39 19 13 11 36 23 51 26 14 4 28 13 31 20 2 7
18 16 35 20 17 4 31 10 31 14 0 5 29 23 65 41 36 18 65 36 65 41 0 4 13 10 29
14 16 3 32 13 35 21 3 8 10 14 16 14 11 0 14 2 71 50 20 16 40 30 43 30 4 0
18 12 31 26 14 15 25 22 25 17 0 -15 78 -22 115 -11 43 13 162 45 193 51 7 2
18 9 24 15 7 7 16 12 20 12 5 0 31 23 59 50 27 28 54 50 59 50 5 0 15 10 21
22 15 27 26 42 65 84 17 18 30 35 27 37 -2 3 8 15 22 28 13 13 25 29 25 34 0
6 11 19 25 29 14 10 25 23 25 28 0 11 70 100 88 111 6 4 12 12 12 17 0 6 6 18
14 27 44 54 92 113 120 147 17 22 43 52 58 68 14 15 24 28 21 28 -3 0 10 17
28 39 19 21 43 50 54 65 11 14 28 36 38 47 9 12 17 26 17 31 0 5 4 6 10 3 5
-3 12 6 16 20 3 14 10 25 14 25 4 0 7 16 6 35 0 19 -4 35 -8 35 -5 0 -8 13 -8
29 0 17 -4 32 -9 35 -5 4 -8 14 -6 24 1 9 -2 23 -7 29 -6 7 -7 21 -3 30 5 10
9 23 10 28 6 29 18 55 27 55 5 0 6 5 3 10 -3 6 -1 10 5 10 7 0 10 5 8 12 -3 7
3 20 11 30 9 10 16 22 16 26 1 4 11 27 24 52 13 25 23 46 21 48 -4 5 94 197
103 200 4 2 5 8 1 13 -3 5 2 19 10 31 9 12 16 30 16 40 0 10 3 18 8 18 4 0 7
55 6 123 0 67 3 127 7 132 4 6 10 89 12 185 3 96 7 193 8 215 4 55 -9 143 -22
151 -6 3 -8 12 -5 20 3 8 1 14 -3 14 -5 0 -12 18 -16 40 -4 22 -11 40 -17 40
-6 0 -8 7 -5 15 4 8 1 17 -4 21 -6 3 -9 15 -6 25 3 11 1 19 -4 19 -5 0 -9 14
-9 30 0 17 -4 30 -9 30 -5 0 -12 18 -16 40 -4 22 -11 42 -15 45 -5 3 -7 12 -3
20 3 8 1 15 -5 15 -5 0 -13 17 -17 38 -4 20 -11 42 -17 49 -5 7 -7 17 -3 23 3
5 1 10 -5 10 -7 0 -10 7 -7 15 4 8 2 17 -2 19 -8 6 -25 64 -22 79 0 4 -3 7 -8
7 -7 0 -18 34 -23 78 -1 6 -4 12 -8 12 -13 0 -15 70 -5 190 3 41 7 105 8 143
1 37 5 67 9 67 6 0 15 89 19 208 2 34 7 62 12 62 5 0 6 10 3 23 -4 12 -8 27
-10 32 -2 6 -6 19 -10 30 -4 11 -14 37 -21 59 -8 21 -12 43 -9 47 3 5 0 9 -5
9 -6 0 -11 8 -11 18 0 10 -3 22 -7 26 -5 4 -8 15 -8 24 -1 16 -19 78 -33 112
-3 8 -7 20 -7 25 -1 6 -7 23 -13 38 -7 16 -12 34 -12 42 0 8 -5 17 -10 20 -6
4 -10 12 -9 18 1 7 -3 26 -10 42 -7 17 -13 38 -14 48 -1 9 -4 17 -8 17 -4 0
-10 18 -14 40 -4 22 -11 40 -16 40 -6 0 -9 6 -8 13 2 12 -4 32 -24 77 -6 14
-11 27 -12 30 -1 3 -7 23 -13 45 -6 22 -10 43 -9 46 1 3 -4 13 -12 22 -7 10
-10 17 -6 17 4 0 3 6 -2 13 -6 6 -14 26 -18 42 -11 40 -10 36 -22 65 -20 45
-26 65 -24 78 1 6 -3 12 -8 12 -6 0 -13 16 -17 35 -3 19 -10 35 -16 35 -5 0
-8 6 -7 13 1 6 -2 21 -6 32 -9 23 -66 85 -78 85 -4 0 -21 13 -38 29 -16 16
-45 40 -64 53 -19 12 -35 29 -35 36 0 6 -7 12 -15 12 -9 0 -26 11 -39 25 -13
14 -27 25 -31 25 -4 0 -29 18 -55 40 -26 22 -51 40 -55 40 -4 0 -18 11 -31 25
-13 14 -26 25 -30 25 -5 0 -23 13 -80 60 -7 5 -15 6 -18 3 -3 -4 -6 -1 -6 5 0
6 -13 13 -30 17 -16 4 -30 11 -30 16 0 6 -4 7 -10 4 -5 -3 -10 -2 -10 4 0 6
-11 13 -25 17 -14 3 -25 10 -25 15 0 5 -3 8 -7 7 -8 -2 -72 17 -108 32 -63 26
-104 38 -109 32 -4 -3 -10 -2 -14 4 -6 10 -114 34 -154 35 -10 0 -20 4 -23 10
-4 5 -70 9 -149 9 -78 0 -145 3 -149 6 -6 6 -54 11 -164 17 -28 1 -55 6 -59
10 -10 10 -24 8 -62 -8z m-3756 -3308 c-2 -6 -6 -19 -9 -27 -7 -19 -17 -84
-21 -135 -2 -22 -5 -40 -6 -40 -1 0 -4 -11 -5 -25 -1 -14 -7 -36 -13 -50 -6
-14 -13 -33 -16 -42 -4 -14 -17 -18 -59 -18 -51 0 -54 1 -54 25 0 14 3 25 7
25 4 0 6 18 5 40 -1 22 2 40 6 40 7 0 24 58 21 73 -1 4 2 7 6 7 4 0 14 16 21
35 24 66 128 149 117 92z m-185 -605 c-6 -2 -9 -7 -7 -11 3 -3 -4 -18 -15 -31
l-19 -25 0 36 c0 43 17 64 38 47 9 -8 10 -14 3 -16z"/>
<path d="M9756 840 c-48 -24 -71 -64 -71 -121 2 -146 190 -189 258 -58 59 115
-70 239 -187 179z m97 -61 c29 -15 37 -28 37 -60 0 -59 -74 -90 -118 -49 -28
26 -28 67 0 97 24 25 48 29 81 12z"/>
<path d="M8570 820 c0 -28 1 -29 55 -32 l56 -3 -56 -77 c-33 -45 -55 -87 -55
-102 l0 -26 101 0 100 0 -3 33 c-3 30 -5 32 -45 32 -23 0 -44 3 -48 7 -4 3 16
38 44 76 30 42 51 80 51 96 l0 26 -100 0 -100 0 0 -30z"/>
<path d="M8810 715 l0 -135 90 0 90 0 0 30 c0 30 0 30 -56 30 -51 0 -55 2 -52
22 3 19 9 22 51 22 45 1 47 2 47 28 0 29 -5 32 -67 30 -29 -1 -33 2 -33 23 0
24 3 25 55 25 54 0 55 0 55 30 l0 30 -90 0 -90 0 0 -135z"/>
<path d="M9030 715 l0 -135 36 0 c28 0 35 4 33 18 -5 51 0 59 41 66 69 11 104
67 80 127 -17 41 -57 59 -130 59 l-60 0 0 -135z m123 66 c4 -1 7 -12 7 -25 0
-16 -7 -26 -22 -30 -34 -9 -35 -8 -40 18 -6 29 7 45 30 41 10 -2 20 -4 25 -4z"/>
<path d="M9270 715 l0 -135 90 0 90 0 0 30 c0 30 -1 30 -55 30 -51 0 -55 2
-55 23 0 21 4 22 50 21 49 -2 50 -1 50 27 0 31 -7 34 -67 30 -29 -2 -33 0 -33
23 0 25 3 26 55 26 54 0 55 0 55 30 l0 30 -90 0 -90 0 0 -135z"/>
<path d="M9480 820 c0 -27 3 -30 30 -30 l30 0 0 -105 0 -105 34 0 35 0 -1 73
c0 143 -1 137 32 137 27 0 30 3 30 30 l0 30 -95 0 -95 0 0 -30z"/>
<path d="M9279 447 c-3 -42 1 -130 5 -135 12 -11 19 9 19 53 0 25 1 45 3 45 1
0 15 -22 31 -50 16 -29 35 -50 45 -50 14 0 16 11 15 70 -2 80 -19 95 -27 23
l-5 -48 -27 46 c-27 46 -57 70 -59 46z"/>
<path d="M9448 452 c-15 -3 -18 -15 -18 -72 0 -62 2 -68 23 -72 61 -11 113 23
91 60 -7 10 -8 26 -3 39 5 14 3 25 -4 31 -14 12 -65 20 -89 14z m68 -33 c3 -6
1 -15 -6 -19 -21 -13 -53 -6 -56 13 -2 13 5 17 26 17 16 0 32 -5 36 -11z m2
-66 c-2 -12 -13 -18 -33 -18 -20 0 -31 6 -33 18 -3 14 4 17 33 17 29 0 36 -3
33 -17z"/>
<path d="M9582 384 l3 -77 48 -1 c31 -1 47 3 47 12 0 7 -14 12 -38 12 l-38 0
2 59 c1 44 -2 61 -13 65 -11 5 -13 -8 -11 -70z"/>
<path d="M9716 441 c-24 -26 -12 -59 22 -67 47 -10 52 -13 52 -29 0 -10 -10
-15 -30 -15 -16 0 -30 5 -30 10 0 6 -7 10 -16 10 -23 0 -12 -23 19 -38 36 -17
76 -6 83 24 8 29 -11 54 -40 54 -30 0 -50 15 -43 33 7 18 28 17 51 -2 26 -22
42 -7 18 17 -27 27 -63 28 -86 3z"/>
<path d="M9868 452 c-15 -3 -18 -15 -18 -73 0 -54 3 -69 15 -69 9 0 13 9 12
28 -2 24 2 27 31 30 40 4 43 22 3 22 -27 0 -47 20 -34 34 4 3 21 6 40 6 18 0
33 5 33 10 0 6 -3 10 -7 11 -30 4 -61 4 -75 1z"/>
<path d="M8903 439 c-14 -14 -5 -46 14 -54 25 -9 55 23 42 46 -11 21 -39 25
-56 8z"/>
<path d="M9150 440 c0 -5 16 -10 35 -10 19 0 35 -2 35 -4 0 -3 -9 -20 -19 -38
-29 -51 -35 -78 -17 -78 9 0 16 6 16 14 0 7 11 34 25 60 14 26 25 51 25 57 0
5 -22 9 -50 9 -27 0 -50 -4 -50 -10z"/>
<path d="M8898 363 c-17 -4 -31 -29 -24 -42 3 -4 20 -6 38 -4 18 2 43 4 56 4
26 -1 30 24 5 34 -23 9 -53 13 -75 8z"/>
</g>
</svg>
