<svg width="18" height="15" viewBox="0 0 18 15" fill="none" xmlns="http://www.w3.org/2000/svg">
<path d="M7.84415 14.3837L6.12866 13.8859C5.94868 13.8353 5.84743 13.6469 5.89805 13.4669L9.73682 0.243621C9.78744 0.0636366 9.97586 -0.0376049 10.1558 0.0130159L11.8713 0.510787C12.0513 0.561407 12.1526 0.749829 12.1019 0.929814L8.26318 14.1531C8.20975 14.3331 8.02414 14.4371 7.84415 14.3837ZM4.63815 11.2283L5.8615 9.92343C5.99086 9.78563 5.98242 9.56627 5.839 9.43972L3.29107 7.19835L5.839 4.95697C5.98242 4.83042 5.99367 4.61107 5.8615 4.47327L4.63815 3.16838C4.5116 3.03339 4.29787 3.02495 4.16007 3.15431L0.10757 6.95087C-0.0358566 7.08305 -0.0358566 7.31084 0.10757 7.44302L4.16007 11.2424C4.29787 11.3717 4.5116 11.3661 4.63815 11.2283ZM13.8399 11.2452L17.8924 7.44583C18.0359 7.31365 18.0359 7.08586 17.8924 6.95368L13.8399 3.1515C13.7049 3.02495 13.4912 3.03057 13.3618 3.16556L12.1385 4.47045C12.0091 4.60825 12.0176 4.82761 12.161 4.95416L14.7089 7.19835L12.161 9.43972C12.0176 9.56627 12.0063 9.78563 12.1385 9.92343L13.3618 11.2283C13.4884 11.3661 13.7021 11.3717 13.8399 11.2452Z" fill="black"/>
</svg>
