<svg width="18" height="19" viewBox="0 0 18 19" fill="none" xmlns="http://www.w3.org/2000/svg">
<path fill-rule="evenodd" clip-rule="evenodd" d="M10.5 5.34448C10.0858 5.34448 9.75 5.68027 9.75 6.09448V12.0945C9.75 12.5087 10.0858 12.8445 10.5 12.8445H13.5C13.9142 12.8445 14.25 12.5087 14.25 12.0945V6.09448C14.25 5.68027 13.9142 5.34448 13.5 5.34448H10.5ZM12.75 6.84448H11.25V11.3445H12.75V6.84448Z" fill="black"/>
<path d="M4.5 5.34448C4.08579 5.34448 3.75 5.68027 3.75 6.09448C3.75 6.50869 4.08579 6.84448 4.5 6.84448H7.5C7.91422 6.84448 8.25 6.50869 8.25 6.09448C8.25 5.68027 7.91422 5.34448 7.5 5.34448H4.5Z" fill="black"/>
<path d="M4.49988 9.98096C4.08567 9.98096 3.74988 10.3167 3.74988 10.731C3.74988 11.1452 4.08567 11.481 4.49988 11.481H7.49988C7.9141 11.481 8.24988 11.1452 8.24988 10.731C8.24988 10.3167 7.9141 9.98096 7.49988 9.98096H4.49988Z" fill="black"/>
<path d="M3.75 12.0945C3.75 11.6803 4.08579 11.3445 4.5 11.3445H7.5C7.91422 11.3445 8.25 11.6803 8.25 12.0945C8.25 12.5087 7.91422 12.8445 7.5 12.8445H4.5C4.08579 12.8445 3.75 12.5087 3.75 12.0945Z" fill="black"/>
<path fill-rule="evenodd" clip-rule="evenodd" d="M3 2.34448C1.75736 2.34448 0.75 3.35184 0.75 4.59448V13.5945C0.75 14.8372 1.75736 15.8445 3 15.8445H15C16.2427 15.8445 17.25 14.8372 17.25 13.5945V4.59448C17.25 3.35184 16.2427 2.34448 15 2.34448H3ZM15 3.84448H3C2.58579 3.84448 2.25 4.18027 2.25 4.59448V13.5945C2.25 14.0087 2.58579 14.3445 3 14.3445H15C15.4142 14.3445 15.75 14.0087 15.75 13.5945V4.59448C15.75 4.18027 15.4142 3.84448 15 3.84448Z" fill="black"/>
</svg>
