<svg width="20" height="14" viewBox="0 0 20 14" fill="none" xmlns="http://www.w3.org/2000/svg">
<path d="M16.6717 6.41587C16.7674 6.03284 16.8057 5.64022 16.8057 5.24762C16.8057 2.35569 14.45 0 11.5581 0C9.14497 0 7.03829 1.65663 6.46372 3.99316C5.98491 3.58141 5.37203 3.35159 4.74007 3.35159C3.2941 3.35159 2.11625 4.52941 2.11625 5.97538C2.11625 6.20519 2.145 6.44459 2.21203 6.67441C0.871407 7.30644 4.22565e-10 8.66622 4.22565e-10 10.1505C-3.12496e-05 12.2763 1.73322 14 3.8495 14H15.7619C17.8782 14 19.6115 12.2763 19.6115 10.1505C19.6115 8.3885 18.3953 6.83722 16.6717 6.41587ZM6.05197 11.5486C6.05197 11.8071 5.83172 12.0273 5.57319 12.0273H4.60603C4.34747 12.0273 4.12725 11.8071 4.12725 11.5486V8.08206C4.12725 7.82353 4.3475 7.60328 4.60603 7.60328H5.57319C5.83175 7.60328 6.05197 7.82353 6.05197 8.08206V11.5486ZM8.84813 11.5486C8.84813 11.8071 8.62788 12.0273 8.36932 12.0273H7.40216C7.1436 12.0273 6.92338 11.8071 6.92338 11.5486V7.4405C6.92338 7.18194 7.14363 6.96172 7.40216 6.96172H8.36932C8.62788 6.96172 8.84813 7.18197 8.84813 7.4405V11.5486ZM11.6443 11.5486C11.6443 11.8071 11.4241 12.0273 11.1655 12.0273H10.1983C9.93979 12.0273 9.71954 11.8071 9.71954 11.5486V6.46375C9.71954 6.20519 9.93979 5.98497 10.1983 5.98497H11.1655C11.4241 5.98497 11.6443 6.20522 11.6443 6.46375V11.5486ZM14.3639 11.5486C14.3639 11.8071 14.1436 12.0273 13.8851 12.0273H12.9945C12.736 12.0273 12.5158 11.8071 12.5158 11.5486V4.52941C12.5158 4.26131 12.736 4.04103 12.9945 4.04103H13.8851C14.1436 4.04103 14.3639 4.26128 14.3639 4.52941V11.5486Z" fill="black"/>
</svg>
